<?xml version="1.0" encoding="utf-8"?>
<!-- Generator: Adobe Illustrator 28.1.0, SVG Export Plug-In . SVG Version: 6.00 Build 0)  -->
<svg version="1.1" id="Layer_1" xmlns="http://www.w3.org/2000/svg" xmlns:xlink="http://www.w3.org/1999/xlink" x="0px" y="0px"
	 viewBox="0 0 559.7 559.7" style="enable-background:new 0 0 559.7 559.7;" xml:space="preserve">
<style type="text/css">
	.st0{fill:#606060;}
	.st1{fill:#AAAAAA;}
</style>
<g>
	<path class="st0" d="M554,302c0,29.2,0,58.4,0,87.6c0,1.5-0.3,3.1-0.1,4.6c1.1,8.7-4.1,14.2-10.3,18.1c-5.3,3.4-12,2.9-18.1,0.3
		c-6.6-2.8-9.4-8.8-12.6-14.4c-9.7-16.7-19.4-33.3-28.9-50.1c-5.7-10-11-20.1-16.8-30c-5.2-9.1-10.8-18-16.1-27
		c-6.3-10.8-12.3-21.8-18.6-32.6c-2.5-4.4-5.4-8.7-7.9-13.1c-2.9-5-5.5-10.2-8.4-15.1c-5.5-9.5-11.3-18.8-16.8-28.3
		c-2.9-5-5.4-10.3-8.3-15.3c-3.9-6.8-7.8-13.5-11.8-20.2c-1.9-3.2-4.1-6.3-6-9.6c-4.5-7.7-11.9-9.6-19.8-9
		c-6.6,0.5-12.1,3.5-15.4,9.9c-4.5,8.6-9.4,16.9-14.2,25.3c-5.5,9.5-11.3,18.8-16.8,28.4c-2.6,4.5-4.8,9.3-7.6,13.7
		c-2.3,3.7-4.5,7.8-7.9,10.3c-5.5,4-12.1,4.3-18.7,2.3c-5.4-1.5-8.5-5.6-11.1-9.9c-6.9-11.8-13.5-23.9-20.4-35.7
		c-4.9-8.4-9.9-16.7-14.9-25.1c-2.2-3.6-4.2-7.3-6.6-10.9c-3.9-5.9-13.1-9.6-20.1-8.3c-5.9,1.2-10.8,3.9-14,9.4
		c-4.1,7.4-8.4,14.7-12.7,22.1c-5.9,10.2-12.1,20.4-18,30.5c-5.2,8.8-10.3,17.8-15.4,26.7c-8.5,14.6-17.1,29.2-25.5,43.8
		c-6.5,11.3-12.6,22.7-19.1,34c-4.2,7.4-8.7,14.5-13,21.9c-5.1,9-10.1,18.2-15.2,27.2c-3.9,6.8-8,13.4-11.9,20.1
		c-3.2,5.4-6.4,10.8-9.3,16.4c-2.6,5.1-5.9,9.4-11,12.3c-5,3-15.6,3.4-22.2-2.5C7,404.9,5.7,399,5.7,392.3
		c0-59.1,0.1-118.2,0.1-177.3c0-3.5-0.1-7.1,0.2-10.6c0.5-6.3,2.6-11.4,8.6-14.9c11.5-6.7,22.8-13.9,34.3-20.5
		c11.9-6.9,23.9-13.5,35.8-20.4c7.9-4.6,15.8-9.6,23.7-14.1c8.7-5,17.7-9.8,26.5-14.9c6.9-4,13.9-8.1,20.8-12.3
		c9.6-5.7,19.3-11.4,29-17.1c10.6-6.1,21.4-12.2,32-18.2c8.5-4.9,16.9-9.7,25.5-14.6c8.7-5,17.5-9.8,26.1-15
		c7.8-4.6,15.4-4.5,23.2,0.1c5.9,3.5,12.1,6.5,18,10c9,5.3,17.8,11,26.8,16.3c6.9,4.1,14.1,7.7,21.2,11.6
		c7.7,4.3,15.1,8.8,22.7,13.2c6.9,4.1,14,7.9,20.9,12c7.6,4.4,15,9,22.5,13.4c6.7,3.9,13.4,7.4,20.1,11.2c5.3,3.1,10.5,6.4,15.9,9.5
		c6.9,4.1,14,7.9,21,12c8.1,4.7,16.1,9.5,24.2,14.1c9.3,5.3,18.7,10.5,28,15.9c5.1,3,10.6,5.6,14.9,9.6c2.8,2.6,6,6,6,10.8
		c-0.1,5.9,0.3,11.9,0.3,17.8C554,247.2,554,274.6,554,302z"/>
	<path class="st1" d="M495.8,520.2c-8.4,0.4-13.8-4.6-17.9-10.8c-3.9-5.8-7.4-11.9-10.8-17.9c-5.2-9.4-10.2-18.8-15.5-28.2
		c-4.1-7.4-8.7-14.7-13-22c-5-8.6-10-17.1-15-25.8c-8.5-14.8-16.9-29.6-25.3-44.2c-7.7-13.2-15.6-26.4-23.2-39.7
		c-3.5-6.1-8.7-9.7-15.6-11.3c-6.7-1.4-16.9,2.8-20.5,9.1c-9.1,15.6-18.1,31.4-27.1,47c-4.4,7.7-8.7,15.4-13.2,23.1
		c-7.1,11.9-17,15.2-29.2,9.1c-3.5-1.8-6.1-5.9-8.3-9.5c-6-9.8-11.7-19.9-17.5-29.9c-5.5-9.6-10.8-19.5-16.3-29.1
		c-2.4-4.2-4.8-8.5-7.6-12.4c-4.1-5.9-14.1-8.4-21.1-6.8c-10.1,2.3-13.7,10.6-18.4,18c-4.2,6.7-7.9,13.7-11.9,20.6
		c-5.7,10-11.3,20.1-17.1,30.1c-4.2,7.3-8.8,14.3-13.1,21.5c-4,6.8-7.5,13.7-11.4,20.5c-9.1,15.9-18.4,31.7-27.6,47.6
		c-5.4,9.4-10.9,18.7-16.1,28.3c-3.2,5.8-7.7,10.4-13.7,12.1c-4.1,1.2-9.2,2.3-13.4-1.3c-2.4-2.1-5.4-3.5-7.8-5.7
		c-7.7-6.9-6.9-16.8-1.6-25.1c3.6-5.7,6.6-11.7,10-17.6c4.5-7.7,9.2-15.1,13.7-22.8c3-5.1,5.5-10.5,8.4-15.6
		c6.8-11.7,13.8-23.4,20.5-35.1c4.1-6.9,7.7-14.1,11.8-21.1c5.8-9.9,11.8-19.6,17.6-29.5c4.9-8.4,9.5-16.9,14.2-25.2
		c4.9-8.4,10-16.5,14.8-24.9c3.2-5.4,5.8-11.2,8.8-16.6c6.8-11.7,13.6-23.5,20.7-35.1c5.3-8.5,15.6-10.3,24.6-6.3
		c6.2,2.7,8.6,7.9,11.5,13c3.9,6.7,7.6,13.4,11.4,20.1c4.5,7.9,8.9,15.9,13.4,23.7c4.9,8.5,9.3,17.4,15,25.3
		c3.9,5.3,10.6,6.9,17.3,6.8c5.7-0.1,10.9-2,14.8-6c2.4-2.5,3.9-5.9,5.6-8.9c7-12.3,14-24.4,20.9-36.7c5-8.9,10.3-17.8,15.1-26.9
		c3.4-6.4,8.5-10.5,15.2-12.4c5.5-1.6,10.4,0.7,14.8,3.3c6.3,3.7,8.7,10.7,12.3,16.7c5,8.3,9.7,16.8,14.5,25.1
		c6.8,11.9,13.2,24,20.2,35.9c4.9,8.4,10.2,16.5,15.1,24.9c3.5,5.9,6.7,11.9,10,17.8c4.8,8.3,9.6,16.5,14.4,24.9
		c6.8,11.9,13.4,24,20.3,35.9c3.5,6.1,7.3,12.1,10.9,18.2c8.7,15,17.6,30,26.1,45.1c2.3,4.1,4.4,8.4,5.8,12.8
		c1.8,5.9-0.5,11.4-4.5,15.6c-2.8,3.1-6.2,5.6-9.8,7.7C500.6,520.4,498.1,520,495.8,520.2z"/>
	<path d="M279.7,520c-39.2,0-78.3,0-117.5,0c-5.3,0-9.4-2.7-12.9-6.5c-1-1.2-2.3-2.1-3.2-3.2c-4.2-5.6-5-11.9-1.8-18
		c5.4-10.3,11.4-20.2,17-30.3c6.2-11,12.1-22.3,18.7-32.9c3.6-5.7,5.5-12.7,11.6-16.7c5.6-3.7,11.5-5.2,18.1-2.5
		c5.2,2.2,9.1,5.5,11.8,10.5c8,14.6,16.3,29.1,24.6,43.6c5,8.7,9.9,17.5,14.9,26.2c4.2,7.6,16,11.5,24.3,9.5
		c9-2.3,12.6-9.2,16.6-16.1c5.2-9.1,10.5-18.3,15.6-27.5c5.1-9.1,10-18.2,15.3-27.2c3.2-5.4,6.2-11.2,10.5-15.4
		c3-2.9,8.2-4.7,12.5-4.9c7.5-0.3,13.7,3.4,17.7,10.1c4.6,7.7,9.1,15.5,13.6,23.2c4.8,8.4,9.6,16.9,14.3,25.3c4,6.9,8,13.9,12,20.9
		c3.5,6.2,5.8,12.9,1.5,19.5c-2.6,4.1-5.5,7.9-10.5,10.4c-4.1,2.1-8,2.1-12.2,2.1C354.9,520,317.3,520,279.7,520L279.7,520z"/>
</g>
</svg>
