<?xml version="1.0" encoding="utf-8"?>
<!-- Generator: Adobe Illustrator 28.1.0, SVG Export Plug-In . SVG Version: 6.00 Build 0)  -->
<svg version="1.1" id="Layer_1" xmlns="http://www.w3.org/2000/svg" xmlns:xlink="http://www.w3.org/1999/xlink" x="0px" y="0px"
	 viewBox="0 0 2783.2 559.7" enable-background="new 0 0 2783.2 559.7" xml:space="preserve">
<g>
	<path fill="#606060" d="M634.2,296.7c0,32.4,0,64.8,0,97.2c0,1.7-0.3,3.4-0.1,5.1c1.2,9.6-4.6,15.8-11.4,20.1
		c-5.9,3.8-13.3,3.2-20.1,0.3c-7.3-3.1-10.4-9.8-14-16c-10.8-18.5-21.5-37-32.1-55.6c-6.3-11.1-12.2-22.3-18.6-33.3
		c-5.8-10.1-12-20-17.9-30c-7-12-13.7-24.2-20.6-36.2c-2.8-4.9-6-9.6-8.8-14.5c-3.2-5.5-6.1-11.3-9.3-16.8
		c-6.1-10.5-12.5-20.9-18.6-31.4c-3.2-5.6-6-11.4-9.2-17c-4.3-7.5-8.7-15-13.1-22.4c-2.1-3.6-4.5-7-6.7-10.6c-5-8.5-13.2-10.6-22-10
		c-7.3,0.6-13.4,3.9-17.1,11c-5,9.5-10.4,18.8-15.8,28.1c-6.1,10.5-12.5,20.9-18.6,31.5c-2.9,5-5.3,10.3-8.4,15.2
		c-2.6,4.1-5,8.7-8.8,11.4c-6.1,4.4-13.4,4.8-20.8,2.6c-6-1.7-9.4-6.2-12.3-11c-7.7-13.1-15-26.5-22.6-39.6
		c-5.4-9.3-11-18.5-16.5-27.8c-2.4-4-4.7-8.1-7.3-12.1c-4.3-6.6-14.5-10.7-22.3-9.2c-6.6,1.3-12,4.3-15.5,10.4
		c-4.6,8.2-9.3,16.3-14.1,24.5c-6.6,11.3-13.4,22.6-20,33.9c-5.8,9.8-11.4,19.8-17.1,29.6c-9.4,16.2-19,32.4-28.3,48.6
		c-7.2,12.5-14,25.2-21.2,37.7c-4.7,8.2-9.7,16.1-14.4,24.3c-5.7,10-11.2,20.2-16.9,30.2c-4.3,7.5-8.9,14.9-13.2,22.3
		c-3.5,6-7.1,12-10.3,18.2c-2.9,5.7-6.6,10.4-12.2,13.7c-5.5,3.3-17.3,3.8-24.6-2.8c-6.1-5.4-7.6-12-7.6-19.4
		c0-65.6,0.1-131.2,0.1-196.7c0-3.9-0.1-7.9,0.2-11.8c0.5-7,2.9-12.7,9.5-16.5c12.8-7.4,25.3-15.4,38.1-22.8
		c13.2-7.7,26.5-15,39.7-22.6c8.8-5.1,17.5-10.6,26.3-15.7c9.7-5.6,19.6-10.9,29.4-16.5c7.7-4.4,15.4-9,23.1-13.6
		c10.7-6.3,21.4-12.7,32.2-19c11.8-6.8,23.7-13.5,35.5-20.2c9.4-5.4,18.8-10.8,28.3-16.2c9.7-5.5,19.4-10.9,29-16.6
		c8.7-5.1,17.1-5,25.7,0.1c6.6,3.9,13.4,7.2,20,11.1c10,5.9,19.7,12.2,29.7,18.1c7.7,4.5,15.7,8.5,23.5,12.9
		c8.5,4.8,16.8,9.8,25.2,14.6c7.7,4.5,15.5,8.8,23.2,13.3c8.4,4.9,16.6,10,25,14.9c7.4,4.3,14.9,8.2,22.3,12.4
		c5.9,3.4,11.7,7.1,17.6,10.5c7.7,4.5,15.5,8.8,23.3,13.3c9,5.2,17.9,10.5,26.9,15.6c10.3,5.9,20.8,11.6,31.1,17.6
		c5.7,3.3,11.8,6.2,16.5,10.6c3.1,2.9,6.7,6.7,6.7,12c-0.1,6.6,0.3,13.2,0.3,19.7C634.2,235.9,634.2,266.3,634.2,296.7z"/>
	<path fill="#AAAAAA" d="M569.7,538.8c-9.3,0.4-15.3-5.1-19.9-12c-4.3-6.4-8.2-13.2-12-19.9c-5.8-10.4-11.3-20.9-17.2-31.3
		c-4.6-8.2-9.6-16.3-14.4-24.4c-5.6-9.5-11.1-19-16.6-28.6c-9.4-16.4-18.7-32.8-28.1-49.1c-8.5-14.7-17.3-29.3-25.8-44.1
		c-3.9-6.8-9.6-10.8-17.3-12.5c-7.4-1.6-18.7,3.1-22.8,10.1c-10.1,17.3-20.1,34.8-30.1,52.2c-4.9,8.5-9.6,17.1-14.6,25.6
		c-7.9,13.2-18.9,16.9-32.4,10.1c-3.9-2-6.8-6.5-9.2-10.5c-6.7-10.9-13-22.1-19.4-33.2c-6.1-10.7-12-21.6-18.1-32.3
		c-2.7-4.7-5.3-9.4-8.4-13.8c-4.5-6.5-15.6-9.3-23.4-7.6c-11.2,2.5-15.2,11.8-20.4,20c-4.7,7.4-8.8,15.2-13.2,22.9
		c-6.3,11.1-12.5,22.3-19,33.4c-4.7,8.1-9.8,15.9-14.5,23.9c-4.4,7.5-8.3,15.2-12.6,22.7c-10.1,17.6-20.4,35.2-30.6,52.8
		c-6,10.4-12.1,20.8-17.9,31.4c-3.5,6.4-8.6,11.5-15.2,13.4c-4.5,1.3-10.2,2.5-14.9-1.4c-2.7-2.3-6-3.9-8.7-6.3
		c-8.6-7.7-7.7-18.6-1.8-27.8c4-6.3,7.3-13,11.1-19.5c5-8.5,10.2-16.8,15.2-25.3c3.3-5.7,6.1-11.6,9.3-17.3c7.5-13,15.3-26,22.8-39
		c4.5-7.7,8.6-15.7,13.1-23.4c6.4-11,13.1-21.7,19.5-32.7c5.4-9.3,10.5-18.8,15.8-28c5.4-9.3,11.1-18.3,16.4-27.6
		c3.5-6,6.4-12.4,9.8-18.4c7.5-13,15.1-26.1,23-38.9c5.9-9.4,17.3-11.4,27.3-7c6.9,3,9.5,8.8,12.8,14.4c4.3,7.4,8.4,14.9,12.6,22.3
		c5,8.8,9.9,17.6,14.9,26.3c5.4,9.4,10.3,19.3,16.7,28.1c4.3,5.9,11.8,7.7,19.2,7.5c6.3-0.1,12.1-2.2,16.4-6.7
		c2.7-2.8,4.3-6.5,6.2-9.9c7.8-13.6,15.5-27.1,23.2-40.7c5.6-9.9,11.4-19.7,16.8-29.8c3.8-7.1,9.4-11.6,16.9-13.8
		c6.1-1.8,11.5,0.8,16.4,3.7c7,4.1,9.7,11.9,13.6,18.5c5.6,9.2,10.8,18.6,16.1,27.9c7.5,13.2,14.7,26.6,22.4,39.8
		c5.4,9.3,11.3,18.3,16.8,27.6c3.9,6.5,7.4,13.2,11.1,19.8c5.3,9.2,10.7,18.3,16,27.6c7.5,13.2,14.9,26.6,22.5,39.8
		c3.9,6.8,8.1,13.4,12.1,20.2c9.7,16.7,19.5,33.3,29,50.1c2.6,4.5,4.9,9.3,6.4,14.2c2,6.6-0.6,12.6-5,17.3
		c-3.1,3.4-6.9,6.2-10.9,8.5C575,539,572.2,538.6,569.7,538.8z"/>
	<path d="M329.9,538.6c-43.5,0-86.9,0-130.4,0c-5.9,0-10.4-3-14.3-7.2c-1.1-1.3-2.6-2.3-3.6-3.6c-4.7-6.2-5.6-13.2-2-20
		c6-11.4,12.6-22.4,18.9-33.6c6.9-12.2,13.4-24.7,20.8-36.5c4-6.3,6.1-14.1,12.9-18.5c6.2-4.1,12.8-5.8,20.1-2.8
		c5.8,2.4,10.1,6.1,13.1,11.6c8.9,16.2,18.1,32.3,27.3,48.4c5.5,9.7,11,19.4,16.5,29.1c4.7,8.4,17.8,12.8,27,10.5
		c10-2.5,14-10.2,18.4-17.9c5.8-10.1,11.6-20.3,17.3-30.5c5.7-10.1,11.1-20.2,17-30.2c3.5-6,6.9-12.4,11.7-17.1
		c3.3-3.2,9.1-5.2,13.9-5.4c8.3-0.3,15.2,3.8,19.6,11.2c5.1,8.6,10.1,17.2,15.1,25.8c5.3,9.3,10.6,18.7,15.9,28.1
		c4.4,7.7,8.9,15.4,13.3,23.2c3.9,6.9,6.4,14.3,1.7,21.6c-2.9,4.6-6.1,8.8-11.7,11.5c-4.6,2.3-8.9,2.3-13.5,2.3
		C413.3,538.6,371.6,538.6,329.9,538.6C329.9,538.6,329.9,538.6,329.9,538.6z"/>
</g>
<g>
	<path d="M1093.4,179.1v341.6H986.7V350.4l-52.6,170.3h-91.7l-52.6-170.3v170.3H682.7V179.1H814l75.3,205.1l73.3-205.1H1093.4z"/>
	<path fill="#606060" d="M1361.9,204.7c26.9,13.8,47.6,33.5,62.2,59.1c14.6,25.6,22,55.3,22,89s-7.3,63.3-22,88.5
		c-14.6,25.3-35.4,44.8-62.2,58.6c-26.9,13.8-58,20.7-93.4,20.7h-117.7V184h117.7C1303.9,184,1335,190.9,1361.9,204.7z
		 M1348.1,434.4c19.3-19.3,29-46.5,29-81.6c0-35.1-9.7-62.5-29-82.3c-19.3-19.8-46.6-29.7-82-29.7h-47.8v222.5h47.8
		C1301.5,463.4,1328.8,453.7,1348.1,434.4z"/>
	<path fill="#606060" d="M1564.3,238.5v84.4h113.4v53.6h-113.4v89.3h127.9v55h-195.4V183.5h195.4v55H1564.3z"/>
	<path fill="#606060" d="M1759.5,262.9c15-26.2,35.4-46.6,61.3-61.3c25.9-14.6,54.9-22,87.1-22c37.6,0,70.6,9.7,98.9,29
		c28.3,19.3,48.1,46,59.4,80.1h-77.7c-7.7-16.1-18.6-28.1-32.6-36.2c-14-8-30.2-12.1-48.5-12.1c-19.6,0-37.1,4.6-52.4,13.8
		c-15.3,9.2-27.2,22.1-35.7,38.8c-8.5,16.7-12.8,36.4-12.8,58.9c0,22.2,4.3,41.7,12.8,58.6c8.5,16.9,20.4,29.9,35.7,39.1
		c15.3,9.2,32.7,13.8,52.4,13.8c18.3,0,34.5-4.1,48.5-12.3c14-8.2,24.9-20.3,32.6-36.4h77.7c-11.3,34.4-31,61.2-59.1,80.3
		c-28.2,19.1-61.2,28.7-99.2,28.7c-32.2,0-61.2-7.3-87.1-22c-25.9-14.6-46.3-35-61.3-61s-22.4-55.7-22.4-88.8
		C1737.1,318.8,1744.6,289.1,1759.5,262.9z"/>
	<path fill="#606060" d="M2193.6,502c-26.4-14.8-47.3-35.3-62.7-61.5c-15.4-26.2-23.2-55.9-23.2-89c0-32.8,7.7-62.3,23.2-88.5
		c15.4-26.2,36.3-46.7,62.7-61.5c26.4-14.8,55.3-22.2,86.9-22.2c31.8,0,60.9,7.4,87.1,22.2c26.2,14.8,47,35.3,62.2,61.5
		c15.3,26.2,22.9,55.7,22.9,88.5c0,33.1-7.6,62.8-22.9,89c-15.3,26.2-36.1,46.7-62.5,61.5c-26.4,14.8-55.3,22.2-86.9,22.2
		C2248.9,524.2,2219.9,516.8,2193.6,502z M2334,450.1c15.4-9.2,27.5-22.3,36.2-39.3c8.7-17,13-36.8,13-59.4c0-22.5-4.3-42.2-13-59.1
		s-20.8-29.8-36.2-38.8c-15.4-9-33.3-13.5-53.6-13.5c-20.3,0-38.2,4.5-53.8,13.5c-15.6,9-27.7,22-36.4,38.8
		c-8.7,16.9-13,36.6-13,59.1c0,22.5,4.3,42.3,13,59.4c8.7,17.1,20.8,30.2,36.4,39.3c15.6,9.2,33.5,13.8,53.8,13.8
		C2300.7,463.8,2318.5,459.3,2334,450.1z"/>
	<path fill="#606060" d="M2676.6,520.8l-74.3-131.3h-31.8v131.3h-67.6V184h126.4c26.1,0,48.3,4.6,66.6,13.8s32.1,21.6,41.3,37.2
		c9.2,15.6,13.8,33.1,13.8,52.4c0,22.2-6.4,42.2-19.3,60.1c-12.9,17.9-32,30.2-57.4,36.9l80.6,136.6H2676.6z M2570.4,338.9h56.5
		c18.3,0,32-4.4,41-13.3c9-8.8,13.5-21.1,13.5-36.9c0-15.4-4.5-27.4-13.5-35.9c-9-8.5-22.7-12.8-41-12.8h-56.5V338.9z"/>
</g>
<g>
</g>
<g>
</g>
<g>
</g>
<g>
</g>
<g>
</g>
</svg>
