<?xml version="1.0" encoding="utf-8"?>
<!-- Generator: Adobe Illustrator 28.1.0, SVG Export Plug-In . SVG Version: 6.00 Build 0)  -->
<svg version="1.1" id="Layer_1" xmlns="http://www.w3.org/2000/svg" xmlns:xlink="http://www.w3.org/1999/xlink" x="0px" y="0px"
	 viewBox="0 0 663.5 559.7" style="enable-background:new 0 0 663.5 559.7;" xml:space="preserve">
<style type="text/css">
	.st0{fill:#606060;}
	.st1{fill:#AAAAAA;}
</style>
<g>
	<path class="st0" d="M634.2,296.7c0,32.4,0,64.8,0,97.2c0,1.7-0.3,3.4-0.1,5.1c1.2,9.6-4.6,15.8-11.4,20.1
		c-5.9,3.8-13.3,3.2-20.1,0.3c-7.3-3.1-10.4-9.8-14-16c-10.8-18.5-21.5-37-32.1-55.6c-6.3-11.1-12.2-22.3-18.6-33.3
		c-5.8-10.1-12-20-17.9-30c-7-12-13.7-24.2-20.6-36.2c-2.8-4.9-6-9.6-8.8-14.5c-3.2-5.5-6.1-11.3-9.3-16.8
		c-6.1-10.5-12.5-20.9-18.6-31.4c-3.2-5.6-6-11.4-9.2-17c-4.3-7.5-8.7-15-13.1-22.4c-2.1-3.6-4.5-7-6.7-10.6c-5-8.5-13.2-10.6-22-10
		c-7.3,0.6-13.4,3.9-17.1,11c-5,9.5-10.4,18.8-15.8,28.1c-6.1,10.5-12.5,20.9-18.6,31.5c-2.9,5-5.3,10.3-8.4,15.2
		c-2.6,4.1-5,8.7-8.8,11.4c-6.1,4.4-13.4,4.8-20.8,2.6c-6-1.7-9.4-6.2-12.3-11c-7.7-13.1-15-26.5-22.6-39.6
		c-5.4-9.3-11-18.5-16.5-27.8c-2.4-4-4.7-8.1-7.3-12.1c-4.3-6.6-14.5-10.7-22.3-9.2c-6.6,1.3-12,4.3-15.5,10.4
		c-4.6,8.2-9.3,16.3-14.1,24.5c-6.6,11.3-13.4,22.6-20,33.9c-5.8,9.8-11.4,19.8-17.1,29.6c-9.4,16.2-19,32.4-28.3,48.6
		c-7.2,12.5-14,25.2-21.2,37.7c-4.7,8.2-9.7,16.1-14.4,24.3c-5.7,10-11.2,20.2-16.9,30.2c-4.3,7.5-8.9,14.9-13.2,22.3
		c-3.5,6-7.1,12-10.3,18.2c-2.9,5.7-6.6,10.4-12.2,13.7c-5.5,3.3-17.3,3.8-24.6-2.8c-6.1-5.4-7.6-12-7.6-19.4
		c0-65.6,0.1-131.2,0.1-196.7c0-3.9-0.1-7.9,0.2-11.8c0.5-7,2.9-12.7,9.5-16.5c12.8-7.4,25.3-15.4,38.1-22.8
		c13.2-7.7,26.5-15,39.7-22.6c8.8-5.1,17.5-10.6,26.3-15.7c9.7-5.6,19.6-10.9,29.4-16.5c7.7-4.4,15.4-9,23.1-13.6
		c10.7-6.3,21.4-12.7,32.2-19c11.8-6.8,23.7-13.5,35.5-20.2c9.4-5.4,18.8-10.8,28.3-16.2c9.7-5.5,19.4-10.9,29-16.6
		c8.7-5.1,17.1-5,25.7,0.1c6.6,3.9,13.4,7.2,20,11.1c10,5.9,19.7,12.2,29.7,18.1c7.7,4.5,15.7,8.5,23.5,12.9
		c8.5,4.8,16.8,9.8,25.2,14.6c7.7,4.5,15.5,8.8,23.2,13.3c8.4,4.9,16.6,10,25,14.9c7.4,4.3,14.9,8.2,22.3,12.4
		c5.9,3.4,11.7,7.1,17.6,10.5c7.7,4.5,15.5,8.8,23.3,13.3c9,5.2,17.9,10.5,26.9,15.6c10.3,5.9,20.8,11.6,31.1,17.6
		c5.7,3.3,11.8,6.2,16.5,10.6c3.1,2.9,6.7,6.7,6.7,12c-0.1,6.6,0.3,13.2,0.3,19.7C634.2,235.9,634.2,266.3,634.2,296.7z"/>
	<path class="st1" d="M569.7,538.8c-9.3,0.4-15.3-5.1-19.9-12c-4.3-6.4-8.2-13.2-12-19.9c-5.8-10.4-11.3-20.9-17.2-31.3
		c-4.6-8.2-9.6-16.3-14.4-24.4c-5.6-9.5-11.1-19-16.6-28.6c-9.4-16.4-18.7-32.8-28.1-49.1c-8.5-14.7-17.3-29.3-25.8-44.1
		c-3.9-6.8-9.6-10.8-17.3-12.5c-7.4-1.6-18.7,3.1-22.8,10.1c-10.1,17.3-20.1,34.8-30.1,52.2c-4.9,8.5-9.6,17.1-14.6,25.6
		c-7.9,13.2-18.9,16.9-32.4,10.1c-3.9-2-6.8-6.5-9.2-10.5c-6.7-10.9-13-22.1-19.4-33.2c-6.1-10.7-12-21.6-18.1-32.3
		c-2.7-4.7-5.3-9.4-8.4-13.8c-4.5-6.5-15.6-9.3-23.4-7.6c-11.2,2.5-15.2,11.8-20.4,20c-4.7,7.4-8.8,15.2-13.2,22.9
		c-6.3,11.1-12.5,22.3-19,33.4c-4.7,8.1-9.8,15.9-14.5,23.9c-4.4,7.5-8.3,15.2-12.6,22.7c-10.1,17.6-20.4,35.2-30.6,52.8
		c-6,10.4-12.1,20.8-17.9,31.4c-3.5,6.4-8.6,11.5-15.2,13.4c-4.5,1.3-10.2,2.5-14.9-1.4c-2.7-2.3-6-3.9-8.7-6.3
		c-8.6-7.7-7.7-18.6-1.8-27.8c4-6.3,7.3-13,11.1-19.5c5-8.5,10.2-16.8,15.2-25.3c3.3-5.7,6.1-11.6,9.3-17.3c7.5-13,15.3-26,22.8-39
		c4.5-7.7,8.6-15.7,13.1-23.4c6.4-11,13.1-21.7,19.5-32.7c5.4-9.3,10.5-18.8,15.8-28c5.4-9.3,11.1-18.3,16.4-27.6
		c3.5-6,6.4-12.4,9.8-18.4c7.5-13,15.1-26.1,23-38.9c5.9-9.4,17.3-11.4,27.3-7c6.9,3,9.5,8.8,12.8,14.4c4.3,7.4,8.4,14.9,12.6,22.3
		c5,8.8,9.9,17.6,14.9,26.3c5.4,9.4,10.3,19.3,16.7,28.1c4.3,5.9,11.8,7.7,19.2,7.5c6.3-0.1,12.1-2.2,16.4-6.7
		c2.7-2.8,4.3-6.5,6.2-9.9c7.8-13.6,15.5-27.1,23.2-40.7c5.6-9.9,11.4-19.7,16.8-29.8c3.8-7.1,9.4-11.6,16.9-13.8
		c6.1-1.8,11.5,0.8,16.4,3.7c7,4.1,9.7,11.9,13.6,18.5c5.6,9.2,10.8,18.6,16.1,27.9c7.5,13.2,14.7,26.6,22.4,39.8
		c5.4,9.3,11.3,18.3,16.8,27.6c3.9,6.5,7.4,13.2,11.1,19.8c5.3,9.2,10.7,18.3,16,27.6c7.5,13.2,14.9,26.6,22.5,39.8
		c3.9,6.8,8.1,13.4,12.1,20.2c9.7,16.7,19.5,33.3,29,50.1c2.6,4.5,4.9,9.3,6.4,14.2c2,6.6-0.6,12.6-5,17.3
		c-3.1,3.4-6.9,6.2-10.9,8.5C575,539,572.2,538.6,569.7,538.8z"/>
	<path d="M329.9,538.6c-43.5,0-86.9,0-130.4,0c-5.9,0-10.4-3-14.3-7.2c-1.1-1.3-2.6-2.3-3.6-3.6c-4.7-6.2-5.6-13.2-2-20
		c6-11.4,12.6-22.4,18.9-33.6c6.9-12.2,13.4-24.7,20.8-36.5c4-6.3,6.1-14.1,12.9-18.5c6.2-4.1,12.8-5.8,20.1-2.8
		c5.8,2.4,10.1,6.1,13.1,11.6c8.9,16.2,18.1,32.3,27.3,48.4c5.5,9.7,11,19.4,16.5,29.1c4.7,8.4,17.8,12.8,27,10.5
		c10-2.5,14-10.2,18.4-17.9c5.8-10.1,11.6-20.3,17.3-30.5c5.7-10.1,11.1-20.2,17-30.2c3.5-6,6.9-12.4,11.7-17.1
		c3.3-3.2,9.1-5.2,13.9-5.4c8.3-0.3,15.2,3.8,19.6,11.2c5.1,8.6,10.1,17.2,15.1,25.8c5.3,9.3,10.6,18.7,15.9,28.1
		c4.4,7.7,8.9,15.4,13.3,23.2c3.9,6.9,6.4,14.3,1.7,21.6c-2.9,4.6-6.1,8.8-11.7,11.5c-4.6,2.3-8.9,2.3-13.5,2.3
		C413.3,538.6,371.6,538.6,329.9,538.6L329.9,538.6z"/>
</g>
</svg>
